<svg width="694" height="177" viewBox="0 0 694 177" fill="none" xmlns="http://www.w3.org/2000/svg">
<path d="M255.357 83.7677C255.357 37.9251 198.399 0.555476 128.135 0.555476C57.8709 0.555476 0.91232 37.9251 0.91232 83.7677C0.91232 84.9531 0.900208 88.225 0.900208 88.6423C0.900208 137.279 50.6861 176.663 128.117 176.663C206.025 176.663 255.357 137.285 255.357 88.6484V83.7677Z" fill="#2D3277"/>
<path d="M250.487 83.7265C250.487 126.944 195.718 161.98 128.152 161.98C60.5973 161.98 5.828 126.944 5.828 83.7265C5.828 40.5086 60.5973 5.46739 128.152 5.46739C195.718 5.46739 250.487 40.5086 250.487 83.7265Z" fill="#F7D032"/>
<path d="M87.5356 59.0356C87.4751 59.1626 86.2535 60.4206 87.0397 61.4366C88.975 63.9041 94.9382 65.3193 100.968 63.9646C104.554 63.1602 109.163 59.5013 113.614 55.9633C118.446 52.1229 123.242 48.2825 128.056 46.7524C133.161 45.1256 136.426 45.8211 138.585 46.4803C140.956 47.1879 143.744 48.7422 148.183 52.0806C156.56 58.3703 190.216 87.7508 196.028 92.8309C200.709 90.7142 221.526 81.7513 249.817 75.516C247.356 60.4327 238.187 46.6375 224.271 35.3462C204.882 43.4866 181.186 47.7382 158.017 36.4167C157.896 36.3743 145.359 30.4354 132.985 30.7256C114.6 31.155 106.641 39.114 98.21 47.5326L87.5356 59.0356Z" fill="white"/>
<path d="M194.66 96.023C194.267 95.6722 155.089 61.387 146.211 54.7162C141.076 50.8638 138.216 49.884 135.216 49.503C133.656 49.2974 131.497 49.5877 129.991 49.9989C125.86 51.1238 120.459 54.7344 115.669 58.5324C110.704 62.4877 106.023 66.2132 101.681 67.1809C96.135 68.4267 89.3614 66.9571 86.2709 64.8706C85.019 64.0299 84.1361 63.0502 83.7127 62.0644C82.5757 59.4154 84.6743 57.2987 85.0251 56.9479L95.8326 45.2514C97.0905 43.9934 98.3545 42.7415 99.6548 41.5078C96.1652 41.9613 92.9417 42.8504 89.8029 43.7273C85.8839 44.828 82.1161 45.8743 78.3059 45.8743C76.7093 45.8743 68.1879 44.4773 66.5671 44.0358C56.7817 41.3566 48.1937 38.7499 35.3723 32.7626C19.9987 44.1991 9.71735 58.5083 6.74786 74.2689C8.95533 74.8556 12.5175 75.9139 14.0113 76.2405C48.7925 83.9757 59.6302 91.9468 61.5957 93.6099C63.7185 91.2392 66.7848 89.7393 70.2139 89.7393C74.0664 89.7454 77.5318 91.6807 79.6425 94.6683C81.6322 93.0959 84.378 91.7472 87.9341 91.7532C89.5428 91.7532 91.2181 92.0496 92.9054 92.6241C96.8305 93.9728 98.8565 96.5855 99.9088 98.9502C101.221 98.3514 102.842 97.916 104.747 97.922C106.622 97.922 108.569 98.3514 110.529 99.1981C116.946 101.95 117.943 108.246 117.363 112.999C117.816 112.945 118.276 112.921 118.748 112.921C126.35 112.927 132.537 119.108 132.531 126.716C132.531 129.074 131.932 131.288 130.886 133.229C132.948 134.391 138.228 137.021 142.855 136.441C146.556 135.969 147.959 134.705 148.467 133.997C148.806 133.502 149.175 132.939 148.836 132.522L139.02 121.617C139.02 121.617 137.405 120.093 137.938 119.501C138.488 118.902 139.486 119.767 140.194 120.353C145.189 124.527 151.291 130.822 151.291 130.822C151.394 130.895 151.799 131.687 154.055 132.092C155.99 132.443 159.426 132.238 161.808 130.284C162.407 129.788 163.006 129.171 163.514 128.536C163.472 128.573 163.435 128.615 163.405 128.627C165.909 125.416 163.121 122.168 163.121 122.168L151.666 109.298C151.666 109.298 150.027 107.786 150.584 107.175C151.08 106.649 152.138 107.447 152.852 108.04C156.486 111.076 161.609 116.217 166.52 121.031C167.481 121.732 171.8 124.406 177.515 120.65C180.986 118.376 181.682 115.576 181.585 113.465C181.343 110.677 179.166 108.687 179.166 108.687L163.514 92.9507C163.514 92.9507 161.857 91.5416 162.444 90.8279C162.921 90.2292 163.992 91.094 164.693 91.6807C169.689 95.8537 183.182 108.228 183.182 108.228C183.369 108.361 188.032 111.681 193.802 108.01C195.858 106.697 197.176 104.714 197.291 102.403C197.485 98.3998 194.66 96.023 194.66 96.023Z" fill="white"/>
<path d="M118.743 115.971C116.318 115.94 113.663 117.386 113.318 117.174C113.119 117.047 113.463 116.073 113.693 115.511C113.923 114.955 117.122 105.338 109.327 101.994C103.369 99.4358 99.7226 102.315 98.4647 103.621C98.1442 103.96 97.993 103.929 97.9567 103.494C97.8357 101.764 97.0676 97.0771 91.9149 95.5107C84.5668 93.2609 79.8313 98.3895 78.6399 100.24C78.0956 96.055 74.5515 92.7953 70.2152 92.7953C65.4979 92.7892 61.6757 96.6115 61.6636 101.323C61.6636 106.04 65.4858 109.862 70.2031 109.862C72.4953 109.868 74.5757 108.949 76.1058 107.479C76.1542 107.528 76.1723 107.606 76.1542 107.77C75.7913 109.88 75.1321 117.549 83.1637 120.676C86.3811 121.922 89.1268 120.996 91.3948 119.4C92.0721 118.922 92.181 119.122 92.0842 119.763C91.7939 121.734 92.1628 125.956 98.0837 128.363C102.595 130.195 105.262 128.32 107.004 126.699C107.766 126.01 107.972 126.119 108.014 127.195C108.226 132.905 112.967 137.434 118.731 137.44C124.664 137.446 129.472 132.651 129.478 126.718C129.484 120.785 124.676 116.037 118.743 115.971Z" fill="white"/>
<path d="M118.743 136.677C113.367 136.671 108.994 132.492 108.794 127.164C108.782 126.71 108.734 125.495 107.706 125.495C107.282 125.495 106.92 125.749 106.496 126.13C105.311 127.23 103.805 128.343 101.61 128.343C100.606 128.343 99.5291 128.107 98.3861 127.642C92.7072 125.344 92.6346 121.443 92.8644 119.876C92.9249 119.453 92.943 119.018 92.6527 118.679L92.308 118.37H91.9512C91.6669 118.37 91.3646 118.485 90.9654 118.77C89.3204 119.925 87.7479 120.487 86.1453 120.487C85.2623 120.487 84.3551 120.306 83.454 119.955C75.9788 117.046 76.5655 109.988 76.9284 107.865C76.9828 107.436 76.88 107.103 76.6078 106.879L76.0756 106.444L75.5857 106.922C74.1222 108.325 72.2231 109.093 70.2152 109.093C65.9334 109.087 62.4498 105.609 62.4498 101.322C62.4559 97.0396 65.9455 93.5621 70.2273 93.5682C74.098 93.5682 77.394 96.4772 77.8839 100.348L78.1561 102.428L79.2991 100.662C79.4261 100.457 82.5649 95.7152 88.3346 95.7212C89.4292 95.7212 90.5602 95.8966 91.7032 96.2474C96.2996 97.6505 97.0798 101.823 97.2007 103.559C97.2854 104.569 98.0051 104.618 98.1442 104.618C98.5433 104.618 98.8336 104.364 99.0453 104.152C99.9102 103.245 101.797 101.739 104.754 101.739C106.109 101.745 107.549 102.059 109.036 102.706C116.348 105.839 113.034 115.129 112.992 115.226C112.363 116.762 112.338 117.439 112.931 117.832L113.215 117.971H113.433C113.76 117.971 114.171 117.826 114.848 117.602C115.84 117.258 117.346 116.737 118.743 116.744H118.749C124.253 116.798 128.722 121.279 128.722 126.722C128.716 132.214 124.241 136.677 118.743 136.677ZM196.18 91.9171C184.108 81.3878 156.216 57.136 148.662 51.4691C144.344 48.2215 141.404 46.5039 138.816 45.7358C137.661 45.385 136.046 44.9859 133.984 44.9859C132.06 44.9859 129.992 45.3306 127.839 46.014C122.958 47.5622 118.096 51.4268 113.391 55.1644L113.149 55.3579C108.77 58.8415 104.24 62.446 100.811 63.2141C99.3114 63.5467 97.7753 63.7221 96.2391 63.7221C92.4048 63.716 88.9515 62.6093 87.6572 60.9582C87.4456 60.6861 87.5846 60.2446 88.0866 59.6095L88.1471 59.5249L98.7671 48.0824C107.083 39.7726 114.939 31.9165 133.016 31.4992C133.318 31.4931 133.621 31.4871 133.917 31.4871C145.172 31.4931 156.427 36.531 157.685 37.1176C168.239 42.2643 179.131 44.877 190.077 44.8891C201.49 44.8891 213.265 42.0647 225.645 36.3677C224.26 35.2065 222.82 34.0695 221.339 32.9627C210.471 37.674 200.105 40.0569 190.108 40.0508C179.899 40.0448 169.702 37.5954 159.796 32.7632C159.276 32.5092 146.847 26.6548 133.923 26.6488C133.585 26.6488 133.24 26.6548 132.907 26.6609C117.721 27.0177 109.163 32.4063 103.412 37.1358C97.8176 37.2688 92.9914 38.6235 88.6914 39.8149C84.8631 40.8854 81.555 41.8107 78.3194 41.8047C76.9949 41.8047 74.5999 41.6837 74.3883 41.6777C70.6749 41.5628 51.9689 36.9785 37.0973 31.3419C35.5792 32.4184 34.1157 33.5312 32.6944 34.6622C48.2374 41.0366 67.149 45.9596 73.1182 46.3466C74.7753 46.4555 76.5473 46.643 78.3133 46.649C82.2626 46.649 86.2057 45.5423 90.0159 44.4718C92.2717 43.8368 94.7574 43.1534 97.3761 42.6514C96.6746 43.3348 95.9791 44.0303 95.2775 44.7258L84.4882 56.4042C83.6415 57.2569 81.7969 59.543 83.0125 62.3613C83.4963 63.4983 84.4761 64.5869 85.8489 65.5062C88.4253 67.2419 93.0277 68.4092 97.3035 68.4092C98.9183 68.4152 100.461 68.2519 101.87 67.9314C106.393 66.9214 111.135 63.1415 116.155 59.1499C120.164 55.9687 125.849 51.9288 130.204 50.7434C131.425 50.4108 132.919 50.2051 134.117 50.2051C134.48 50.2112 134.818 50.2233 135.127 50.2596C138.012 50.6285 140.788 51.6082 145.753 55.3337C154.613 61.9863 193.791 96.2655 194.178 96.6042C194.208 96.6223 196.706 98.7814 196.53 102.362C196.44 104.364 195.327 106.136 193.398 107.369C191.729 108.428 189.999 108.966 188.257 108.966C185.638 108.96 183.836 107.738 183.715 107.654C183.57 107.539 170.15 95.2253 165.209 91.0886C164.422 90.4354 163.654 89.8488 162.886 89.8488C162.469 89.8488 162.106 90.0241 161.858 90.3326C161.078 91.2942 161.949 92.6187 162.977 93.4896L178.659 109.25C178.683 109.274 180.613 111.083 180.824 113.502C180.951 116.115 179.699 118.298 177.099 120.003C175.248 121.225 173.379 121.842 171.541 121.842C169.134 121.842 167.446 120.741 167.071 120.487L164.822 118.268C160.709 114.222 156.464 110.043 153.361 107.448C152.599 106.819 151.789 106.232 151.02 106.232C150.639 106.232 150.295 106.378 150.029 106.65C149.678 107.049 149.43 107.756 150.313 108.93C150.676 109.414 151.105 109.813 151.105 109.813L162.548 122.67C162.644 122.785 164.906 125.465 162.808 128.15L162.403 128.664C162.064 129.039 161.689 129.39 161.338 129.686C159.385 131.289 156.784 131.458 155.744 131.458C155.193 131.458 154.661 131.416 154.202 131.331C153.071 131.131 152.315 130.811 151.946 130.375L151.807 130.236C151.184 129.589 145.414 123.699 140.642 119.713C140.013 119.187 139.227 118.528 138.411 118.528C138.018 118.528 137.661 118.679 137.383 118.987C136.439 120.021 137.854 121.57 138.459 122.132L148.22 132.897C148.208 132.994 148.081 133.212 147.845 133.55C147.495 134.04 146.309 135.226 142.771 135.667C142.348 135.722 141.912 135.746 141.477 135.746C137.824 135.746 133.929 133.974 131.921 132.909C132.841 130.98 133.312 128.857 133.312 126.722C133.318 118.691 126.793 112.153 118.755 112.147C118.586 112.147 118.404 112.153 118.235 112.159C118.489 108.494 117.975 101.545 110.845 98.4911C108.794 97.6021 106.75 97.1485 104.761 97.1485C103.206 97.1485 101.706 97.4146 100.297 97.9589C98.8276 95.0862 96.3661 92.9936 93.1668 91.905C91.4008 91.2942 89.6409 90.9858 87.9475 90.9858C84.978 90.9858 82.2444 91.8566 79.8071 93.5863C77.4727 90.6894 73.9468 88.9658 70.2334 88.9658C66.9797 88.9658 63.8529 90.2661 61.5366 92.5642C58.5006 90.2419 46.4412 82.5853 14.188 75.2614C12.6277 74.9045 9.04131 73.8825 6.84594 73.2353C6.48307 74.9832 6.20487 76.7491 6.02344 78.5272C6.02344 78.5272 11.9685 79.9545 13.1417 80.2206C46.0904 87.5385 56.9826 95.1467 58.8211 96.5861C58.1982 98.0799 57.8716 99.6946 57.8716 101.322C57.8656 108.131 63.4054 113.677 70.2152 113.683C70.9773 113.683 71.7333 113.617 72.4771 113.478C73.5053 118.485 76.7832 122.283 81.7908 124.231C83.2544 124.793 84.7361 125.083 86.1936 125.083C87.1311 125.09 88.0806 124.969 89.0059 124.733C89.9312 127.085 92.0117 130.012 96.6685 131.899C98.2954 132.559 99.9283 132.903 101.513 132.903C102.813 132.903 104.077 132.674 105.281 132.232C107.518 137.663 112.822 141.261 118.743 141.261C122.662 141.268 126.43 139.671 129.176 136.847C131.522 138.153 136.488 140.518 141.501 140.524C142.148 140.524 142.759 140.475 143.364 140.403C148.347 139.774 150.664 137.826 151.728 136.314C151.916 136.048 152.097 135.77 152.242 135.474C153.415 135.812 154.71 136.091 156.191 136.091C158.913 136.091 161.52 135.165 164.156 133.242C166.745 131.379 168.589 128.694 168.856 126.414C168.862 126.378 168.868 126.347 168.868 126.311C169.745 126.493 170.64 126.583 171.535 126.583C174.329 126.583 177.087 125.712 179.717 123.989C184.792 120.663 185.675 116.314 185.59 113.466C186.479 113.653 187.386 113.75 188.293 113.75C190.918 113.75 193.501 112.958 195.962 111.391C199.107 109.383 201 106.299 201.284 102.719C201.484 100.281 200.879 97.8259 199.597 95.7152C208.1 92.0502 227.538 84.9561 250.423 79.7972C250.284 78.0252 250.03 76.2713 249.709 74.5235C222.022 80.6742 201.351 89.6129 196.18 91.9171Z" fill="#2D3277"/>
<path d="M675.618 63.7693C673.407 66.6992 670.25 68.1611 666.127 68.1611C662.005 68.1611 658.83 66.6992 656.607 63.7693C654.384 60.8395 653.276 56.6694 653.276 51.2711C653.276 45.8787 654.384 41.7206 656.607 38.8028C658.83 35.8909 662.005 34.4349 666.127 34.4349C670.25 34.4349 673.407 35.8909 675.618 38.8028C677.823 41.7206 678.931 45.8787 678.931 51.2711C678.931 56.6694 677.823 60.8395 675.618 63.7693ZM686.888 31.0677C682.346 25.3698 675.438 22.5239 666.163 22.5239C656.912 22.5239 650.004 25.3698 645.457 31.0677C640.903 36.7656 638.626 43.5061 638.626 51.2711C638.626 59.1798 640.903 65.9382 645.457 71.5643C650.004 77.1663 656.912 79.9823 666.163 79.9823C675.438 79.9823 682.346 77.1663 686.888 71.5643C691.447 65.9382 693.718 59.1798 693.718 51.2711C693.718 43.5061 691.447 36.7656 686.888 31.0677Z" fill="#2D3277"/>
<path d="M563.456 57.1109C563.36 61.8442 562 65.0976 559.406 66.8831C556.805 68.6685 553.959 69.5673 550.874 69.5673C548.921 69.5673 547.267 69.022 545.907 67.9496C544.547 66.8771 543.87 65.1276 543.87 62.719C543.87 60.0048 544.978 58.0097 547.213 56.7155C548.525 55.9606 550.694 55.3075 553.708 54.7862L556.925 54.1931C558.531 53.8815 559.801 53.558 560.718 53.2105C561.647 52.8749 562.551 52.4256 563.456 51.8564V57.1109ZM570.622 26.3027C566.008 23.966 560.73 22.7856 554.792 22.7856C545.649 22.7856 539.208 25.1643 535.452 29.9275C533.097 32.9712 531.767 36.8597 531.461 41.587H545.11C545.446 39.5019 546.111 37.8483 547.123 36.626C548.525 34.9723 550.922 34.1455 554.307 34.1455C557.333 34.1455 559.615 34.5589 561.173 35.4097C562.731 36.2545 563.51 37.7824 563.51 39.9992C563.51 41.8206 562.497 43.1507 560.466 44.0135C559.334 44.5108 557.453 44.9242 554.816 45.2538L549.975 45.8529C544.481 46.5419 540.305 47.7103 537.483 49.328C532.318 52.3058 529.73 57.1109 529.73 63.7615C529.73 68.8842 531.336 72.8506 534.553 75.6366C537.752 78.4347 541.827 79.603 546.746 79.8367C577.608 81.2147 577.26 63.5758 577.548 59.903V39.6038C577.548 33.091 575.235 28.6513 570.622 26.3027" fill="#2D3277"/>
<path d="M500.258 34.8801C503.781 34.8801 506.376 35.9705 508.047 38.1455C509.192 39.7572 509.911 41.5786 510.186 43.5857H525.417C524.578 35.9106 521.888 30.5482 517.352 27.5106C512.805 24.4848 506.975 22.963 499.845 22.963C491.457 22.963 484.872 25.5334 480.121 30.6741C475.352 35.8268 472.967 43.0165 472.967 52.2614C472.967 60.4518 475.124 67.1263 479.444 72.267C483.752 77.4077 490.486 79.9841 499.629 79.9841C508.778 79.9841 515.692 76.8985 520.354 70.7332C523.278 66.9106 524.907 62.8544 525.255 58.5705H510.084C509.773 61.4045 508.886 63.7112 507.412 65.4907C505.956 67.2701 503.488 68.1629 500.001 68.1629C495.088 68.1629 491.744 65.922 489.965 61.4344C488.994 59.0378 488.497 55.8623 488.497 51.9199C488.497 47.7798 488.994 44.4605 489.965 41.9501C491.81 37.2407 495.249 34.8801 500.258 34.8801Z" fill="#2D3277"/>
<path d="M468.888 22.9613C437.618 22.9613 439.47 50.648 439.47 50.648V78.7661H453.658V52.3915C453.658 48.0716 454.203 44.8722 455.281 42.7931C457.235 39.1024 461.033 37.251 466.713 37.251C467.138 37.251 467.702 37.2749 468.391 37.3049C469.086 37.3409 469.871 37.4008 470.769 37.5026V23.0691C470.14 23.0272 469.733 23.0092 469.565 22.9912C469.373 22.9732 469.146 22.9613 468.888 22.9613Z" fill="#2D3277"/>
<path d="M397.692 37.6566C399.687 35.6075 402.491 34.577 406.104 34.577C409.43 34.577 412.222 35.5416 414.468 37.4829C416.709 39.4181 417.961 42.2641 418.219 45.9968H393.935C394.445 42.4858 395.703 39.7117 397.692 37.6566ZM416.763 64.0731C416.17 64.9239 415.529 65.6549 414.822 66.2241C412.815 67.8717 410.095 68.375 406.889 68.375C403.857 68.375 401.485 67.9137 399.334 66.5596C395.799 64.3847 393.804 60.6999 393.588 55.2956H432.856C432.904 50.6402 432.76 47.0752 432.383 44.6008C431.73 40.3768 430.292 36.656 428.093 33.4506C425.643 29.8257 422.527 27.1655 418.776 25.4759C415.014 23.7983 410.796 22.9535 406.104 22.9535C398.195 22.9535 391.785 25.4459 386.83 30.4249C381.881 35.4158 379.394 42.5696 379.394 51.9044C379.394 61.8742 382.138 69.07 387.626 73.4858C393.103 77.9075 399.442 80.1243 406.608 80.1243C415.295 80.1243 422.066 77.5001 426.895 72.2575C429.495 69.4954 431.125 66.7693 431.814 64.0731H416.763Z" fill="#2D3277"/>
<path d="M373.697 78.766H360.737V46.1243C360.737 43.1466 359.749 36.0586 351.205 36.0586C345.501 36.0586 341.379 40.1628 341.379 46.1243V78.766H328.395V46.1243C328.395 43.1466 327.52 36.0586 318.971 36.0586C313.171 36.0586 309.144 40.1628 309.144 46.1243V78.766H296.179V46.4359C296.179 32.961 305.118 22.7755 318.971 22.7755C325.849 22.7755 331.451 25.6634 335.094 30.2888C338.916 25.6634 344.614 22.7755 351.205 22.7755C365.351 22.7755 373.697 32.5476 373.697 46.4359V78.766Z" fill="#2D3277"/>
<path d="M617.388 63.8837C615.315 66.8555 612.271 68.3354 608.293 68.3354C604.29 68.3354 601.325 66.8435 599.365 63.8597C597.406 60.876 596.424 56.5201 596.424 51.5472C596.424 46.9337 597.382 43.0692 599.311 39.9536C601.241 36.8381 604.26 35.2743 608.389 35.2743C611.091 35.2743 613.463 36.1371 615.512 37.8446C618.838 40.6846 620.503 45.7714 620.503 52.362C620.503 57.0714 619.461 60.9119 617.388 63.8837ZM634.41 5.91594C634.41 5.91594 620.114 4.38812 620.114 15.8678L620.102 31.0742C618.52 28.5339 616.459 26.5447 613.925 25.1127C611.39 23.6867 608.49 22.9618 605.219 22.9618C598.131 22.9618 592.475 25.598 588.233 30.8705C583.997 36.155 581.888 43.7582 581.888 52.9492C581.888 60.9299 584.033 67.4726 588.335 72.5654C592.643 77.6521 601.079 79.887 608.568 79.887C634.697 79.887 634.392 57.4848 634.392 57.4848L634.41 5.91594Z" fill="#2D3277"/>
<path d="M550.866 120.39C552.843 118.359 555.623 117.34 559.206 117.34C562.496 117.34 565.258 118.293 567.487 120.216C569.715 122.14 570.956 124.956 571.213 128.652H547.139C547.649 125.177 548.895 122.427 550.866 120.39ZM569.769 146.579C569.182 147.424 568.541 148.143 567.84 148.706C565.851 150.342 563.053 150.947 559.877 150.947C556.876 150.947 554.521 150.491 552.394 149.143C548.877 146.992 547.014 143.236 546.804 137.873H585.719C585.773 133.266 585.623 129.731 585.245 127.274C584.598 123.086 583.178 119.395 580.997 116.226C578.565 112.625 575.479 109.989 571.758 108.317C568.038 106.658 563.85 105.819 559.206 105.819C551.363 105.819 545.006 108.287 540.087 113.224C535.192 118.167 532.73 125.261 532.73 134.512C532.73 144.392 535.45 151.528 540.89 155.908C546.319 160.293 552.604 162.486 559.71 162.486C568.313 162.486 575.018 159.886 579.799 154.691C582.381 151.953 583.999 149.245 584.688 146.579H569.769Z" fill="#2D3277"/>
<path d="M530.022 105.874C529.836 105.862 529.614 105.85 529.357 105.85C498.075 105.85 499.932 133.531 499.932 133.531V161.217H514.126V135.274C514.126 130.954 514.666 127.749 515.756 125.676C517.691 121.985 521.508 120.134 527.176 120.134C527.613 120.134 528.164 120.152 528.853 120.194C529.554 120.217 530.339 120.283 531.232 120.385V105.946C530.603 105.91 530.201 105.892 530.022 105.874Z" fill="#2D3277"/>
<path d="M404.159 98.6685V161.118H417.472V88.4829C417.472 88.4829 404.159 87.9437 404.159 98.6685Z" fill="#2D3277"/>
<path d="M442.606 102.501H428.352V88.3848H442.606V102.501Z" fill="#2D3277"/>
<path d="M428.352 161.217H442.636V107.312H428.352V161.217Z" fill="#2D3277"/>
<path d="M480.816 161.104H466.46L447.629 107.301H462.615L473.33 145.13L482.829 112.153C483.919 108.913 486.075 107.301 489.303 107.301H499.832L480.816 161.104Z" fill="#2D3277"/>
</svg>
